<svg width="60" height="100" viewBox="0 0 60 100" fill="none" xmlns="http://www.w3.org/2000/svg">
  <!-- Corn -->
  <g opacity="0.3">
    <!-- Corn cob -->
    <path d="M30 40 L25 85 Q25 90 30 92 Q35 90 35 85 L30 40 Z" fill="#fbbf24"/>
    <!-- Kernels pattern -->
    <circle cx="27" cy="50" r="2" fill="#f59e0b"/>
    <circle cx="33" cy="52" r="2" fill="#f59e0b"/>
    <circle cx="28" cy="58" r="2" fill="#f59e0b"/>
    <circle cx="32" cy="60" r="2" fill="#f59e0b"/>
    <circle cx="27" cy="66" r="2" fill="#f59e0b"/>
    <circle cx="33" cy="68" r="2" fill="#f59e0b"/>
    <circle cx="28" cy="74" r="2" fill="#f59e0b"/>
    <circle cx="32" cy="76" r="2" fill="#f59e0b"/>
    <!-- Husk leaves -->
    <path d="M30 40 Q20 30 15 20" stroke="#16a34a" stroke-width="3" fill="none"/>
    <path d="M30 40 Q40 30 45 20" stroke="#16a34a" stroke-width="3" fill="none"/>
    <path d="M30 40 Q25 25 22 15" stroke="#22c55e" stroke-width="2.5" fill="none"/>
    <path d="M30 40 Q35 25 38 15" stroke="#22c55e" stroke-width="2.5" fill="none"/>
  </g>
</svg>
